<?xml version="1.0" encoding="UTF-8"?><svg xmlns="http://www.w3.org/2000/svg" viewBox="0 0 286.23 166.97"><defs><style>.d{fill:#f58732;}.e{fill:#fff;}.f{fill:#7e57c5;}</style></defs><g id="a"/><g id="b"><g id="c"><g><path class="d" d="M152.9,0H8.59C3.85,0,0,3.85,0,8.59V43.46c0,4.67,3.73,8.44,8.36,8.57v16.75c0,1.89,2.15,2.97,3.66,1.85l25.17-18.58h115.7c4.74,0,8.59-3.85,8.59-8.59V8.59c0-4.74-3.85-8.59-8.59-8.59Z"/><path class="f" d="M277.64,56.33H46.14c-4.74,0-8.59,3.85-8.59,8.59v62.98c0,4.74,3.85,8.59,8.59,8.59H228.95l40.68,30.02c1.54,1.14,3.72,.04,3.72-1.88v-28.14h4.29c4.74,0,8.59-3.85,8.59-8.59v-62.98c0-4.74-3.85-8.59-8.59-8.59Z"/><g><path class="e" d="M17.98,30.92h7.44v2.88H13.3v-1.98l7.41-10.68h-7.46v-2.9h12.08v1.92l-7.36,10.75Z"/><path class="e" d="M36.76,27.2h-5.9v3.72h6.97v2.88h-10.72v-15.56h10.74v2.9h-6.99v3.28h5.9v2.78Z"/><path class="e" d="M52.09,31.88c-.58,.64-1.42,1.16-2.53,1.55-1.11,.39-2.33,.59-3.65,.59-2.04,0-3.66-.62-4.88-1.87-1.22-1.25-1.87-2.98-1.96-5.2v-1.35c-.01-1.53,.26-2.87,.8-4.01,.54-1.14,1.32-2.02,2.32-2.64,1.01-.62,2.17-.92,3.5-.92,1.94,0,3.44,.44,4.51,1.33,1.07,.89,1.7,2.21,1.87,3.97h-3.61c-.13-.87-.41-1.49-.83-1.86s-1.03-.56-1.82-.56c-.94,0-1.67,.4-2.18,1.2-.51,.8-.77,1.94-.78,3.42v.94c0,1.55,.27,2.72,.8,3.5,.53,.78,1.37,1.17,2.51,1.17,.98,0,1.7-.22,2.18-.65v-2.41h-2.61v-2.57h6.36v6.39Z"/><path class="e" d="M72.72,33.8h-3.73v-6.5h-5.52v6.5h-3.75v-15.56h3.75v6.18h5.52v-6.18h3.73v15.56Z"/><path class="e" d="M84.74,27.2h-5.9v3.72h6.97v2.88h-10.72v-15.56h10.74v2.9h-6.99v3.28h5.9v2.78Z"/><path class="e" d="M99.76,21.14h-4.67v12.66h-3.75v-12.66h-4.58v-2.9h13v2.9Z"/><path class="e" d="M111.07,18.25l3.47,10.82,3.46-10.82h4.94v15.56h-3.76v-3.63l.36-7.44-3.76,11.07h-2.48l-3.77-11.08,.36,7.45v3.63h-3.75v-15.56h4.93Z"/><path class="e" d="M134.97,27.2h-5.9v3.72h6.97v2.88h-10.72v-15.56h10.74v2.9h-6.99v3.28h5.9v2.78Z"/><path class="e" d="M149.99,21.14h-4.67v12.66h-3.75v-12.66h-4.58v-2.9h13v2.9Z"/></g><g><path class="e" d="M71.13,102.66l-5.11,5.61v13.64h-12.47v-51.71h12.47v22.8l4.33-6.57,11.15-16.23h15.41l-17.47,22.87,17.47,28.84h-14.77l-11.01-19.25Z"/><path class="e" d="M112.54,112.32h21.7v9.59h-34.17v-51.71h12.47v42.12Z"/><path class="e" d="M171.57,99.96h-19.6v12.36h23.16v9.59h-35.62v-51.71h35.69v9.62h-23.23v10.9h19.6v9.23Z"/><path class="e" d="M220.76,70.2v33.85c0,3.84-.82,7.15-2.45,9.96-1.63,2.8-3.98,4.94-7.03,6.41s-6.67,2.2-10.83,2.2c-6.3,0-11.26-1.63-14.88-4.9-3.62-3.27-5.47-7.74-5.54-13.43v-34.1h12.54v34.34c.14,5.66,2.77,8.49,7.88,8.49,2.58,0,4.53-.71,5.86-2.13,1.33-1.42,1.99-3.73,1.99-6.93v-33.78h12.47Z"/><path class="e" d="M247.75,103.62h-6.75v18.29h-12.47v-51.71h20.35c6.13,0,10.93,1.36,14.38,4.08,3.46,2.72,5.19,6.56,5.19,11.53,0,3.6-.73,6.57-2.18,8.94-1.46,2.37-3.74,4.28-6.84,5.75l10.8,20.88v.53h-13.35l-9.13-18.29Zm-6.75-9.59h7.88c2.37,0,4.15-.62,5.35-1.87,1.2-1.24,1.79-2.98,1.79-5.21s-.6-3.98-1.81-5.25c-1.21-1.27-2.98-1.91-5.33-1.91h-7.88v14.24Z"/></g></g></g></g></svg>