<?xml version="1.0" encoding="UTF-8"?><svg xmlns="http://www.w3.org/2000/svg" viewBox="0 0 220.87 128.85"><defs><style>.d{fill:#f58732;}.e{fill:#fff;}.f{fill:#7e57c5;}</style></defs><g id="a"/><g id="b"><g id="c"><g><path class="d" d="M117.98,0H6.63C2.97,0,0,2.97,0,6.63v26.91c0,3.6,2.87,6.52,6.45,6.61v12.93c0,1.45,1.66,2.29,2.83,1.43l19.42-14.34H117.98c3.66,0,6.63-2.97,6.63-6.63V6.63c0-3.66-2.97-6.63-6.63-6.63Z"/><path class="f" d="M214.24,43.47H35.61c-3.66,0-6.63,2.97-6.63,6.63v48.6c0,3.66,2.97,6.63,6.63,6.63H176.67l31.39,23.17c1.19,.88,2.87,.03,2.87-1.45v-21.72h3.31c3.66,0,6.63-2.97,6.63-6.63V50.1c0-3.66-2.97-6.63-6.63-6.63Z"/><g><path class="e" d="M13.87,23.86h5.74v2.23H10.26v-1.53l5.72-8.24h-5.75v-2.23h9.32v1.48l-5.68,8.29Z"/><path class="e" d="M28.36,20.99h-4.55v2.87h5.38v2.23h-8.27V14.08h8.29v2.23h-5.39v2.53h4.55v2.14Z"/><path class="e" d="M40.19,24.6c-.45,.49-1.1,.89-1.95,1.2-.86,.3-1.8,.45-2.82,.45-1.57,0-2.83-.48-3.77-1.44s-1.44-2.3-1.51-4.01v-1.04c0-1.18,.2-2.21,.62-3.1,.42-.88,1.02-1.56,1.79-2.04,.78-.48,1.68-.71,2.7-.71,1.49,0,2.66,.34,3.48,1.03,.83,.68,1.31,1.71,1.45,3.06h-2.79c-.1-.67-.31-1.15-.64-1.43s-.8-.43-1.4-.43c-.73,0-1.29,.31-1.68,.92s-.6,1.5-.6,2.64v.73c0,1.2,.2,2.1,.61,2.7,.41,.6,1.05,.9,1.93,.9,.75,0,1.31-.17,1.68-.5v-1.86h-2.01v-1.99h4.91v4.93Z"/><path class="e" d="M56.11,26.08h-2.88v-5.01h-4.26v5.01h-2.89V14.08h2.89v4.77h4.26v-4.77h2.88v12Z"/><path class="e" d="M65.39,20.99h-4.55v2.87h5.38v2.23h-8.27V14.08h8.29v2.23h-5.39v2.53h4.55v2.14Z"/><path class="e" d="M76.98,16.31h-3.6v9.77h-2.89v-9.77h-3.54v-2.23h10.03v2.23Z"/><path class="e" d="M85.71,14.08l2.68,8.35,2.67-8.35h3.81v12h-2.9v-2.8l.28-5.74-2.9,8.54h-1.91l-2.91-8.55,.28,5.75v2.8h-2.89V14.08h3.8Z"/><path class="e" d="M104.15,20.99h-4.55v2.87h5.38v2.23h-8.27V14.08h8.29v2.23h-5.39v2.53h4.55v2.14Z"/><path class="e" d="M115.74,16.31h-3.6v9.77h-2.89v-9.77h-3.54v-2.23h10.03v2.23Z"/></g><g><path class="e" d="M87.95,80.85c-.13,2.78-.88,5.23-2.25,7.36-1.37,2.13-3.29,3.78-5.77,4.95-2.48,1.17-5.3,1.75-8.48,1.75-5.24,0-9.37-1.71-12.39-5.13-3.01-3.42-4.52-8.24-4.52-14.47v-1.97c0-3.91,.68-7.33,2.04-10.26,1.36-2.93,3.32-5.19,5.88-6.8,2.56-1.6,5.52-2.4,8.88-2.4,4.84,0,8.73,1.28,11.68,3.82,2.94,2.55,4.61,6.06,5.02,10.54h-9.59c-.07-2.43-.69-4.17-1.84-5.23s-2.91-1.59-5.26-1.59-4.15,.9-5.26,2.69-1.7,4.65-1.75,8.58v2.83c0,4.26,.53,7.3,1.6,9.12s2.91,2.74,5.52,2.74c2.21,0,3.9-.52,5.07-1.56s1.79-2.7,1.86-4.96h9.56Z"/><path class="e" d="M126.29,75.23c0,3.89-.72,7.33-2.17,10.33s-3.49,5.3-6.15,6.92c-2.66,1.61-5.69,2.42-9.09,2.42s-6.41-.78-9.04-2.34c-2.63-1.56-4.68-3.79-6.15-6.7-1.47-2.91-2.24-6.24-2.32-10.01v-2.25c0-3.91,.72-7.36,2.15-10.34,1.43-2.99,3.49-5.3,6.17-6.92,2.68-1.63,5.72-2.44,9.14-2.44s6.39,.8,9.04,2.41c2.65,1.61,4.71,3.9,6.18,6.86,1.47,2.97,2.22,6.37,2.23,10.21v1.84Zm-9.78-1.67c0-3.96-.66-6.97-1.99-9.03-1.32-2.06-3.22-3.09-5.69-3.09-4.82,0-7.37,3.62-7.65,10.85l-.03,2.94c0,3.91,.65,6.91,1.95,9.01s3.22,3.15,5.78,3.15,4.3-1.04,5.62-3.1,1.98-5.03,2-8.9v-1.84Z"/><path class="e" d="M131.25,94.36V54.46h12.85c3.53,0,6.7,.8,9.51,2.4,2.81,1.6,5.01,3.86,6.59,6.77,1.58,2.92,2.38,6.18,2.4,9.8v1.83c0,3.65-.77,6.93-2.32,9.83-1.54,2.89-3.72,5.16-6.52,6.8-2.8,1.63-5.93,2.46-9.39,2.48h-13.13Zm9.62-32.48v25.08h3.34c2.76,0,4.88-.98,6.36-2.95,1.48-1.96,2.22-4.88,2.22-8.76v-1.72c0-3.86-.74-6.76-2.22-8.72s-3.64-2.94-6.47-2.94h-3.23Z"/><path class="e" d="M192.29,77.43h-15.13v9.54h17.87v7.4h-27.49V54.46h27.54v7.42h-17.92v8.42h15.13v7.13Z"/></g></g></g></g></svg>