<svg viewBox="0 0 220.87 128.85" xmlns="http://www.w3.org/2000/svg"><path d="m117.98 0h-111.35c-3.66 0-6.63 2.97-6.63 6.63v26.91c0 3.6 2.87 6.52 6.45 6.61v12.93c0 1.45 1.66 2.29 2.83 1.43l19.42-14.34h89.28c3.66 0 6.63-2.97 6.63-6.63v-26.91c0-3.66-2.97-6.63-6.63-6.63z" fill="#f58732"/><path d="m214.24 43.47h-178.63c-3.66 0-6.63 2.97-6.63 6.63v48.6c0 3.66 2.97 6.63 6.63 6.63h141.06l31.39 23.17c1.19.88 2.87.03 2.87-1.45v-21.72h3.31c3.66 0 6.63-2.97 6.63-6.63v-48.6c0-3.66-2.97-6.63-6.63-6.63z" fill="#7e57c5"/><g fill="#fff"><path d="m13.87 23.86h5.74v2.23h-9.35v-1.53l5.72-8.24h-5.75v-2.23h9.32v1.48z"/><path d="m28.36 20.99h-4.55v2.87h5.38v2.23h-8.27v-12.01h8.29v2.23h-5.39v2.53h4.55v2.14z"/><path d="m40.19 24.6c-.45.49-1.1.89-1.95 1.2-.86.3-1.8.45-2.82.45-1.57 0-2.83-.48-3.77-1.44s-1.44-2.3-1.51-4.01v-1.04c0-1.18.2-2.21.62-3.1.42-.88 1.02-1.56 1.79-2.04.78-.48 1.68-.71 2.7-.71 1.49 0 2.66.34 3.48 1.03.83.68 1.31 1.71 1.45 3.06h-2.79c-.1-.67-.31-1.15-.64-1.43s-.8-.43-1.4-.43c-.73 0-1.29.31-1.68.92-.4.62-.6 1.5-.6 2.64v.73c0 1.2.2 2.1.61 2.7s1.05.9 1.93.9c.75 0 1.31-.17 1.68-.5v-1.86h-2.01v-1.99h4.91v4.93z"/><path d="m56.11 26.08h-2.88v-5.01h-4.26v5.01h-2.89v-12h2.89v4.77h4.26v-4.77h2.88z"/><path d="m65.39 20.99h-4.55v2.87h5.38v2.23h-8.27v-12.01h8.29v2.23h-5.39v2.53h4.55v2.14z"/><path d="m76.98 16.31h-3.6v9.77h-2.89v-9.77h-3.54v-2.23h10.03z"/><path d="m85.71 14.08 2.68 8.35 2.67-8.35h3.81v12h-2.9v-2.8l.28-5.74-2.9 8.54h-1.91l-2.91-8.55.28 5.75v2.8h-2.89v-12h3.8z"/><path d="m104.15 20.99h-4.55v2.87h5.38v2.23h-8.27v-12.01h8.29v2.23h-5.39v2.53h4.55v2.14z"/><path d="m115.74 16.31h-3.6v9.77h-2.89v-9.77h-3.54v-2.23h10.03z"/><path d="m72.07 87.27c-1.32 1.46-3.24 2.64-5.77 3.53s-5.31 1.34-8.33 1.34c-4.65 0-8.36-1.42-11.13-4.26s-4.26-6.8-4.46-11.86l-.02-3.07c0-3.49.62-6.54 1.85-9.15s3-4.61 5.3-6.02c2.3-1.4 4.96-2.11 7.98-2.11 4.42 0 7.85 1.01 10.29 3.03s3.87 5.04 4.28 9.05h-8.23c-.29-1.98-.93-3.4-1.9-4.24s-2.36-1.27-4.14-1.27c-2.14 0-3.8.91-4.97 2.73s-1.76 4.42-1.78 7.8v2.14c0 3.54.6 6.2 1.81 7.98s3.11 2.67 5.71 2.67c2.22 0 3.88-.5 4.97-1.49v-5.51h-5.94v-5.87h14.49v14.57z"/><path d="m99.04 76.6h-13.45v8.48h15.88v6.58h-24.43v-35.48h24.48v6.6h-15.93v7.48h13.45v6.33z"/><path d="m113.51 85.08h14.88v6.58h-23.44v-35.48h8.55v28.89z"/><path d="m159.24 56.18v23.22c0 2.63-.56 4.91-1.68 6.83s-2.73 3.39-4.82 4.4c-2.1 1.01-4.57 1.51-7.43 1.51-4.32 0-7.72-1.12-10.21-3.36-2.48-2.24-3.75-5.31-3.8-9.21v-23.39h8.6v23.56c.1 3.88 1.9 5.82 5.41 5.82 1.77 0 3.11-.49 4.02-1.46s1.36-2.56 1.36-4.75v-23.17h8.55z"/><path d="m173.68 91.65h-8.53v-35.47h8.53z"/><path d="m179.63 91.65v-35.47h11.43c3.13 0 5.95.71 8.45 2.13s4.45 3.43 5.86 6.02c1.4 2.59 2.11 5.49 2.13 8.71v1.63c0 3.25-.69 6.16-2.06 8.73s-3.31 4.59-5.8 6.04-5.27 2.19-8.34 2.2h-11.67zm8.55-28.87v22.29h2.97c2.45 0 4.34-.87 5.65-2.62 1.32-1.74 1.97-4.34 1.97-7.78v-1.53c0-3.43-.66-6.01-1.97-7.75-1.32-1.74-3.23-2.61-5.75-2.61z"/></g></svg>