<svg viewBox="0 0 220.87 128.85" xmlns="http://www.w3.org/2000/svg"><path d="m117.98 0h-111.35c-3.66 0-6.63 2.97-6.63 6.63v26.91c0 3.6 2.87 6.52 6.45 6.61v12.93c0 1.45 1.66 2.29 2.83 1.43l19.42-14.34h89.28c3.66 0 6.63-2.97 6.63-6.63v-26.91c0-3.66-2.97-6.63-6.63-6.63z" fill="#f58732"/><path d="m214.24 43.47h-178.63c-3.66 0-6.63 2.97-6.63 6.63v48.6c0 3.66 2.97 6.63 6.63 6.63h141.06l31.39 23.17c1.19.88 2.87.03 2.87-1.45v-21.72h3.31c3.66 0 6.63-2.97 6.63-6.63v-48.6c0-3.66-2.97-6.63-6.63-6.63z" fill="#7e57c5"/><g fill="#fff"><path d="m13.87 23.86h5.74v2.23h-9.35v-1.53l5.72-8.24h-5.75v-2.23h9.32v1.48z"/><path d="m28.36 20.99h-4.55v2.87h5.38v2.23h-8.27v-12.01h8.29v2.23h-5.39v2.53h4.55v2.14z"/><path d="m40.19 24.6c-.45.49-1.1.89-1.95 1.2-.86.3-1.8.45-2.82.45-1.57 0-2.83-.48-3.77-1.44s-1.44-2.3-1.51-4.01v-1.04c0-1.18.2-2.21.62-3.1.42-.88 1.02-1.56 1.79-2.04.78-.48 1.68-.71 2.7-.71 1.49 0 2.66.34 3.48 1.03.83.68 1.31 1.71 1.45 3.06h-2.79c-.1-.67-.31-1.15-.64-1.43s-.8-.43-1.4-.43c-.73 0-1.29.31-1.68.92-.4.62-.6 1.5-.6 2.64v.73c0 1.2.2 2.1.61 2.7s1.05.9 1.93.9c.75 0 1.31-.17 1.68-.5v-1.86h-2.01v-1.99h4.91v4.93z"/><path d="m56.11 26.08h-2.88v-5.01h-4.26v5.01h-2.89v-12h2.89v4.77h4.26v-4.77h2.88z"/><path d="m65.39 20.99h-4.55v2.87h5.38v2.23h-8.27v-12.01h8.29v2.23h-5.39v2.53h4.55v2.14z"/><path d="m76.98 16.31h-3.6v9.77h-2.89v-9.77h-3.54v-2.23h10.03z"/><path d="m85.71 14.08 2.68 8.35 2.67-8.35h3.81v12h-2.9v-2.8l.28-5.74-2.9 8.54h-1.91l-2.91-8.55.28 5.75v2.8h-2.89v-12h3.8z"/><path d="m104.15 20.99h-4.55v2.87h5.38v2.23h-8.27v-12.01h8.29v2.23h-5.39v2.53h4.55v2.14z"/><path d="m115.74 16.31h-3.6v9.77h-2.89v-9.77h-3.54v-2.23h10.03z"/><path d="m104.53 70.97h3.87c3.07 0 4.6-1.5 4.6-4.51 0-1.17-.37-2.12-1.1-2.86s-1.76-1.11-3.09-1.11c-1.09 0-2.03.32-2.84.95s-1.21 1.43-1.21 2.36h-8.21c0-1.86.52-3.53 1.56-4.99s2.48-2.6 4.32-3.42 3.87-1.23 6.08-1.23c3.95 0 7.05.9 9.31 2.7s3.39 4.28 3.39 7.43c0 1.53-.47 2.97-1.4 4.32-.93 1.36-2.29 2.46-4.08 3.3 1.88.68 3.36 1.72 4.43 3.11s1.61 3.11 1.61 5.15c0 3.17-1.22 5.7-3.65 7.6s-5.64 2.85-9.6 2.85c-2.32 0-4.48-.44-6.47-1.33-1.99-.88-3.5-2.11-4.52-3.68s-1.53-3.35-1.53-5.35h8.26c0 1.09.44 2.03 1.32 2.83s1.96 1.19 3.24 1.19c1.45 0 2.6-.4 3.46-1.21s1.29-1.83 1.29-3.08c0-1.78-.45-3.05-1.34-3.8-.89-.74-2.13-1.12-3.7-1.12h-4v-6.11z"/><path d="m126.43 92.14v-35.47h11.43c3.13 0 5.95.71 8.45 2.13 2.5 1.43 4.46 3.43 5.86 6.02s2.12 5.49 2.13 8.71v1.63c0 3.25-.69 6.16-2.06 8.73-1.37 2.58-3.3 4.59-5.8 6.04-2.49 1.46-5.27 2.19-8.34 2.2h-11.67zm8.55-28.87v22.29h2.97c2.45 0 4.34-.87 5.65-2.62 1.32-1.74 1.97-4.34 1.97-7.78v-1.53c0-3.42-.66-6-1.97-7.75-1.32-1.74-3.23-2.61-5.75-2.61z"/></g></svg>