<svg viewBox="0 0 220.87 128.85" xmlns="http://www.w3.org/2000/svg"><path d="m117.98 0h-111.35c-3.66 0-6.63 2.97-6.63 6.63v26.91c0 3.6 2.87 6.52 6.45 6.61v12.93c0 1.45 1.66 2.29 2.83 1.43l19.42-14.34h89.28c3.66 0 6.63-2.97 6.63-6.63v-26.91c0-3.66-2.97-6.63-6.63-6.63z" fill="#f58732"/><path d="m214.24 43.47h-178.63c-3.66 0-6.63 2.97-6.63 6.63v48.6c0 3.66 2.97 6.63 6.63 6.63h141.06l31.39 23.17c1.19.88 2.87.03 2.87-1.45v-21.72h3.31c3.66 0 6.63-2.97 6.63-6.63v-48.6c0-3.66-2.97-6.63-6.63-6.63z" fill="#7e57c5"/><g fill="#fff"><path d="m13.87 23.86h5.74v2.23h-9.35v-1.53l5.72-8.24h-5.75v-2.23h9.32v1.48z"/><path d="m28.36 20.99h-4.55v2.87h5.38v2.23h-8.27v-12.01h8.29v2.23h-5.39v2.53h4.55v2.14z"/><path d="m40.19 24.6c-.45.49-1.1.89-1.95 1.2-.86.3-1.8.45-2.82.45-1.57 0-2.83-.48-3.77-1.44s-1.44-2.3-1.51-4.01v-1.04c0-1.18.2-2.21.62-3.1.42-.88 1.02-1.56 1.79-2.04.78-.48 1.68-.71 2.7-.71 1.49 0 2.66.34 3.48 1.03.83.68 1.31 1.71 1.45 3.06h-2.79c-.1-.67-.31-1.15-.64-1.43s-.8-.43-1.4-.43c-.73 0-1.29.31-1.68.92-.4.62-.6 1.5-.6 2.64v.73c0 1.2.2 2.1.61 2.7s1.05.9 1.93.9c.75 0 1.31-.17 1.68-.5v-1.86h-2.01v-1.99h4.91v4.93z"/><path d="m56.11 26.08h-2.88v-5.01h-4.26v5.01h-2.89v-12h2.89v4.77h4.26v-4.77h2.88z"/><path d="m65.39 20.99h-4.55v2.87h5.38v2.23h-8.27v-12.01h8.29v2.23h-5.39v2.53h4.55v2.14z"/><path d="m76.98 16.31h-3.6v9.77h-2.89v-9.77h-3.54v-2.23h10.03z"/><path d="m85.71 14.08 2.68 8.35 2.67-8.35h3.81v12h-2.9v-2.8l.28-5.74-2.9 8.54h-1.91l-2.91-8.55.28 5.75v2.8h-2.89v-12h3.8z"/><path d="m104.15 20.99h-4.55v2.87h5.38v2.23h-8.27v-12.01h8.29v2.23h-5.39v2.53h4.55v2.14z"/><path d="m115.74 16.31h-3.6v9.77h-2.89v-9.77h-3.54v-2.23h10.03z"/><path d="m69.34 77.02h-13.45v8.48h15.88v6.58h-24.43v-35.48h24.48v6.6h-15.93v7.48h13.45v6.33z"/><path d="m88.49 68.39 5.8-11.79h9.77l-9.91 17.59 10.18 17.88h-9.87l-5.97-12.01-5.97 12.01h-9.84l10.16-17.88-9.89-17.59h9.74z"/><path d="m134.95 63.21h-10.65v28.87h-8.55v-28.87h-10.45v-6.6h29.65z"/><path d="m151.73 79.53h-4.63v12.55h-8.55v-35.48h13.96c4.21 0 7.49.93 9.87 2.8s3.56 4.5 3.56 7.91c0 2.47-.5 4.51-1.5 6.13s-2.56 2.94-4.69 3.94l7.41 14.32v.37h-9.16l-6.26-12.55zm-4.63-6.58h5.41c1.62 0 2.85-.43 3.67-1.28s1.23-2.05 1.23-3.58-.41-2.73-1.24-3.6-2.05-1.31-3.65-1.31h-5.41v9.77z"/><path d="m191.25 85.45h-11.72l-2.05 6.63h-9.14l13.01-35.47h8.04l13.11 35.47h-9.18zm-9.67-6.6h7.62l-3.82-12.3z"/></g></svg>