<?xml version="1.0" encoding="UTF-8"?><svg xmlns="http://www.w3.org/2000/svg" viewBox="0 0 220.87 128.85"><defs><style>.d{fill:#f58732;}.e{fill:#fff;}.f{fill:#7e57c5;}</style></defs><g id="a"/><g id="b"><g id="c"><g><path class="d" d="M117.98,0H6.63C2.97,0,0,2.97,0,6.63v26.91c0,3.6,2.87,6.52,6.45,6.61v12.93c0,1.45,1.66,2.29,2.83,1.43l19.42-14.34H117.98c3.66,0,6.63-2.97,6.63-6.63V6.63c0-3.66-2.97-6.63-6.63-6.63Z"/><path class="f" d="M214.24,43.47H35.61c-3.66,0-6.63,2.97-6.63,6.63v48.6c0,3.66,2.97,6.63,6.63,6.63H176.67l31.39,23.17c1.19,.88,2.87,.03,2.87-1.45v-21.72h3.31c3.66,0,6.63-2.97,6.63-6.63V50.1c0-3.66-2.97-6.63-6.63-6.63Z"/><g><path class="e" d="M13.87,23.86h5.74v2.23H10.26v-1.53l5.72-8.24h-5.75v-2.23h9.32v1.48l-5.68,8.29Z"/><path class="e" d="M28.36,20.99h-4.55v2.87h5.38v2.23h-8.27V14.08h8.29v2.23h-5.39v2.53h4.55v2.14Z"/><path class="e" d="M40.19,24.6c-.45,.49-1.1,.89-1.95,1.2-.86,.3-1.8,.45-2.82,.45-1.57,0-2.83-.48-3.77-1.44s-1.44-2.3-1.51-4.01v-1.04c0-1.18,.2-2.21,.62-3.1,.42-.88,1.02-1.56,1.79-2.04,.78-.48,1.68-.71,2.7-.71,1.49,0,2.66,.34,3.48,1.03,.83,.68,1.31,1.71,1.45,3.06h-2.79c-.1-.67-.31-1.15-.64-1.43s-.8-.43-1.4-.43c-.73,0-1.29,.31-1.68,.92-.4,.62-.6,1.5-.6,2.64v.73c0,1.2,.2,2.1,.61,2.7,.41,.6,1.05,.9,1.93,.9,.75,0,1.31-.17,1.68-.5v-1.86h-2.01v-1.99h4.91v4.93Z"/><path class="e" d="M56.11,26.08h-2.88v-5.01h-4.26v5.01h-2.89V14.08h2.89v4.77h4.26v-4.77h2.88v12Z"/><path class="e" d="M65.39,20.99h-4.55v2.87h5.38v2.23h-8.27V14.08h8.29v2.23h-5.39v2.53h4.55v2.14Z"/><path class="e" d="M76.98,16.31h-3.6v9.77h-2.89v-9.77h-3.54v-2.23h10.03v2.23Z"/><path class="e" d="M85.71,14.08l2.68,8.35,2.67-8.35h3.81v12h-2.9v-2.8l.28-5.74-2.9,8.54h-1.91l-2.91-8.55,.28,5.75v2.8h-2.89V14.08h3.8Z"/><path class="e" d="M104.15,20.99h-4.55v2.87h5.38v2.23h-8.27V14.08h8.29v2.23h-5.39v2.53h4.55v2.14Z"/><path class="e" d="M115.74,16.31h-3.6v9.77h-2.89v-9.77h-3.54v-2.23h10.03v2.23Z"/></g><g><path class="e" d="M44.53,94.28V54.38h14.33c5.13,0,9.04,.94,11.72,2.82,2.68,1.88,4.01,4.61,4.01,8.19,0,2.06-.48,3.83-1.43,5.29s-2.35,2.54-4.19,3.23c2.08,.55,3.68,1.57,4.8,3.07s1.67,3.33,1.67,5.48c0,3.91-1.24,6.85-3.71,8.81-2.48,1.97-6.14,2.97-11,3h-16.2Zm9.62-23.27h5.02c2.1-.02,3.6-.4,4.49-1.15s1.34-1.86,1.34-3.33c0-1.69-.48-2.9-1.45-3.64-.97-.74-2.53-1.11-4.69-1.11h-4.71v9.24Zm0,6.3v9.56h6.3c1.74,0,3.07-.4,4-1.19,.93-.79,1.4-1.91,1.4-3.36,0-3.33-1.65-5-4.96-5.02h-6.74Z"/><path class="e" d="M105.48,77.35h-15.13v9.54h17.87v7.4h-27.49V54.38h27.54v7.43h-17.92v8.41h15.13v7.13Z"/><path class="e" d="M136.89,77.35h-15.13v9.54h17.87v7.4h-27.49V54.38h27.54v7.43h-17.92v8.41h15.13v7.13Z"/><path class="e" d="M153.17,86.88h16.75v7.4h-26.36V54.38h9.62v32.5Z"/><path class="e" d="M173.97,94.28V54.38h12.85c3.53,0,6.7,.8,9.51,2.4,2.81,1.6,5.01,3.86,6.59,6.77,1.58,2.92,2.38,6.18,2.4,9.8v1.84c0,3.65-.77,6.93-2.32,9.83-1.54,2.9-3.72,5.16-6.52,6.8-2.8,1.64-5.93,2.46-9.39,2.48h-13.13Zm9.62-32.48v25.08h3.34c2.76,0,4.88-.98,6.36-2.95,1.48-1.96,2.22-4.88,2.22-8.75v-1.73c0-3.86-.74-6.76-2.22-8.72-1.48-1.95-3.64-2.93-6.47-2.93h-3.23Z"/></g></g></g></g></svg>