<svg viewBox="0 0 220.87 128.85" xmlns="http://www.w3.org/2000/svg"><path d="m117.98 0h-111.35c-3.66 0-6.63 2.97-6.63 6.63v26.91c0 3.6 2.87 6.52 6.45 6.61v12.93c0 1.45 1.66 2.29 2.83 1.43l19.42-14.34h89.28c3.66 0 6.63-2.97 6.63-6.63v-26.91c0-3.66-2.97-6.63-6.63-6.63z" fill="#f58732"/><path d="m214.24 43.47h-178.63c-3.66 0-6.63 2.97-6.63 6.63v48.6c0 3.66 2.97 6.63 6.63 6.63h141.06l31.39 23.17c1.19.88 2.87.03 2.87-1.45v-21.72h3.31c3.66 0 6.63-2.97 6.63-6.63v-48.6c0-3.66-2.97-6.63-6.63-6.63z" fill="#7e57c5"/><g fill="#fff"><path d="m13.87 23.86h5.74v2.23h-9.35v-1.53l5.72-8.24h-5.75v-2.23h9.32v1.48z"/><path d="m28.36 20.99h-4.55v2.87h5.38v2.23h-8.27v-12.01h8.29v2.23h-5.39v2.53h4.55v2.14z"/><path d="m40.19 24.6c-.45.49-1.1.89-1.95 1.2-.86.3-1.8.45-2.82.45-1.57 0-2.83-.48-3.77-1.44s-1.44-2.3-1.51-4.01v-1.04c0-1.18.2-2.21.62-3.1.42-.88 1.02-1.56 1.79-2.04.78-.48 1.68-.71 2.7-.71 1.49 0 2.66.34 3.48 1.03.83.68 1.31 1.71 1.45 3.06h-2.79c-.1-.67-.31-1.15-.64-1.43s-.8-.43-1.4-.43c-.73 0-1.29.31-1.68.92-.4.62-.6 1.5-.6 2.64v.73c0 1.2.2 2.1.61 2.7s1.05.9 1.93.9c.75 0 1.31-.17 1.68-.5v-1.86h-2.01v-1.99h4.91v4.93z"/><path d="m56.11 26.08h-2.88v-5.01h-4.26v5.01h-2.89v-12h2.89v4.77h4.26v-4.77h2.88z"/><path d="m65.39 20.99h-4.55v2.87h5.38v2.23h-8.27v-12.01h8.29v2.23h-5.39v2.53h4.55v2.14z"/><path d="m76.98 16.31h-3.6v9.77h-2.89v-9.77h-3.54v-2.23h10.03z"/><path d="m85.71 14.08 2.68 8.35 2.67-8.35h3.81v12h-2.9v-2.8l.28-5.74-2.9 8.54h-1.91l-2.91-8.55.28 5.75v2.8h-2.89v-12h3.8z"/><path d="m104.15 20.99h-4.55v2.87h5.38v2.23h-8.27v-12.01h8.29v2.23h-5.39v2.53h4.55v2.14z"/><path d="m115.74 16.31h-3.6v9.77h-2.89v-9.77h-3.54v-2.23h10.03z"/><path d="m44.53 94.28v-39.9h14.33c5.13 0 9.04.94 11.72 2.82s4.01 4.61 4.01 8.19c0 2.06-.48 3.83-1.43 5.29s-2.35 2.54-4.19 3.23c2.08.55 3.68 1.57 4.8 3.07s1.67 3.33 1.67 5.48c0 3.91-1.24 6.85-3.71 8.81-2.48 1.97-6.14 2.97-11 3h-16.2zm9.62-23.27h5.02c2.1-.02 3.6-.4 4.49-1.15s1.34-1.86 1.34-3.33c0-1.69-.48-2.9-1.45-3.64s-2.53-1.11-4.69-1.11h-4.71v9.24zm0 6.3v9.56h6.3c1.74 0 3.07-.4 4-1.19s1.4-1.91 1.4-3.36c0-3.33-1.65-5-4.96-5.02h-6.74z"/><path d="m105.48 77.35h-15.13v9.54h17.87v7.4h-27.49v-39.91h27.54v7.43h-17.92v8.41h15.13z"/><path d="m136.89 77.35h-15.13v9.54h17.87v7.4h-27.49v-39.91h27.54v7.43h-17.92v8.41h15.13z"/><path d="m153.17 86.88h16.75v7.4h-26.36v-39.9h9.62v32.5z"/><path d="m173.97 94.28v-39.9h12.85c3.53 0 6.7.8 9.51 2.4s5.01 3.86 6.59 6.77c1.58 2.92 2.38 6.18 2.4 9.8v1.84c0 3.65-.77 6.93-2.32 9.83-1.54 2.9-3.72 5.16-6.52 6.8s-5.93 2.46-9.39 2.48h-13.13zm9.62-32.48v25.08h3.34c2.76 0 4.88-.98 6.36-2.95 1.48-1.96 2.22-4.88 2.22-8.75v-1.73c0-3.86-.74-6.76-2.22-8.72-1.48-1.95-3.64-2.93-6.47-2.93z"/></g></svg>